<svg width="87" height="28" viewBox="0 0 87 28" fill="none" xmlns="http://www.w3.org/2000/svg">
<path d="M0 17.6205L12.8917 7.29697L25.6666 17.6205L12.8917 27.9999L0 17.6205Z" fill="#563BDB"/>
<path d="M4.08289 17.6297L12.8727 10.5781L21.5829 17.6297L12.8727 24.7195L4.08289 17.6297Z" fill="white"/>
<path d="M0 10.4646L12.8917 0L25.6666 10.4646L12.8917 20.9857L0 10.4646Z" fill="#563BDB"/>
<path d="M43.3861 12.2535H41.5267C41.4737 11.9486 41.3759 11.6785 41.2334 11.4432C41.0909 11.2045 40.9135 11.0023 40.7014 10.8366C40.4893 10.6709 40.2474 10.5466 39.9756 10.4637C39.7071 10.3776 39.4171 10.3345 39.1055 10.3345C38.552 10.3345 38.0615 10.4737 37.634 10.7521C37.2064 11.0272 36.8716 11.4316 36.6297 11.9652C36.3877 12.4955 36.2668 13.1434 36.2668 13.9091C36.2668 14.6879 36.3877 15.3442 36.6297 15.8778C36.875 16.4081 37.2097 16.8092 37.634 17.0809C38.0615 17.3494 38.5504 17.4836 39.1006 17.4836C39.4055 17.4836 39.6905 17.4439 39.9557 17.3643C40.2242 17.2815 40.4644 17.1605 40.6766 17.0014C40.892 16.8423 41.0726 16.6467 41.2185 16.4147C41.3676 16.1827 41.4704 15.9176 41.5267 15.6193L43.3861 15.6292C43.3165 16.1131 43.1657 16.5672 42.9337 16.9914C42.705 17.4157 42.405 17.7902 42.0338 18.115C41.6626 18.4365 41.2284 18.6884 40.7313 18.8707C40.2341 19.0497 39.6823 19.1392 39.0757 19.1392C38.1808 19.1392 37.3821 18.932 36.6794 18.5177C35.9768 18.1034 35.4233 17.5052 35.0189 16.723C34.6145 15.9408 34.4124 15.0028 34.4124 13.9091C34.4124 12.812 34.6162 11.874 35.0239 11.0951C35.4315 10.3129 35.9867 9.71469 36.6894 9.3004C37.392 8.8861 38.1875 8.67895 39.0757 8.67895C39.6425 8.67895 40.1695 8.75849 40.6567 8.91758C41.1439 9.07667 41.5781 9.31034 41.9592 9.61858C42.3404 9.9235 42.6536 10.298 42.8989 10.7422C43.1475 11.183 43.3099 11.6868 43.3861 12.2535ZM48.3266 19.1491C47.5809 19.1491 46.9346 18.9851 46.3877 18.6569C45.8408 18.3288 45.4166 17.8698 45.115 17.2798C44.8167 16.6898 44.6675 16.0004 44.6675 15.2116C44.6675 14.4228 44.8167 13.7317 45.115 13.1385C45.4166 12.5452 45.8408 12.0845 46.3877 11.7564C46.9346 11.4282 47.5809 11.2642 48.3266 11.2642C49.0723 11.2642 49.7187 11.4282 50.2655 11.7564C50.8124 12.0845 51.235 12.5452 51.5333 13.1385C51.8349 13.7317 51.9857 14.4228 51.9857 15.2116C51.9857 16.0004 51.8349 16.6898 51.5333 17.2798C51.235 17.8698 50.8124 18.3288 50.2655 18.6569C49.7187 18.9851 49.0723 19.1491 48.3266 19.1491ZM48.3365 17.7074C48.7409 17.7074 49.079 17.5963 49.3508 17.3743C49.6225 17.1489 49.8247 16.8473 49.9573 16.4694C50.0932 16.0916 50.1611 15.6707 50.1611 15.2066C50.1611 14.7393 50.0932 14.3167 49.9573 13.9389C49.8247 13.5577 49.6225 13.2545 49.3508 13.0291C49.079 12.8037 48.7409 12.691 48.3365 12.691C47.9222 12.691 47.5776 12.8037 47.3025 13.0291C47.0307 13.2545 46.8268 13.5577 46.691 13.9389C46.5584 14.3167 46.4921 14.7393 46.4921 15.2066C46.4921 15.6707 46.5584 16.0916 46.691 16.4694C46.8268 16.8473 47.0307 17.1489 47.3025 17.3743C47.5776 17.5963 47.9222 17.7074 48.3365 17.7074ZM60.0745 11.3636L57.355 19H55.3664L52.6469 11.3636H54.566L56.3209 17.0362H56.4005L58.1604 11.3636H60.0745ZM64.4408 19.1491C63.6751 19.1491 63.0139 18.99 62.4571 18.6718C61.9036 18.3503 61.4777 17.8963 61.1794 17.3096C60.8811 16.7197 60.732 16.0253 60.732 15.2265C60.732 14.441 60.8811 13.7516 61.1794 13.1584C61.481 12.5618 61.9019 12.0977 62.4422 11.7663C62.9824 11.4316 63.6171 11.2642 64.3463 11.2642C64.817 11.2642 65.2611 11.3404 65.6787 11.4929C66.0996 11.642 66.4708 11.874 66.7923 12.1889C67.1171 12.5038 67.3724 12.9048 67.558 13.392C67.7436 13.8759 67.8364 14.4526 67.8364 15.1221V15.674H61.5771V14.4609H66.1112C66.1079 14.1162 66.0333 13.8096 65.8875 13.5412C65.7417 13.2694 65.5378 13.0556 65.276 12.8998C65.0175 12.7441 64.7159 12.6662 64.3712 12.6662C64.0033 12.6662 63.6801 12.7557 63.4017 12.9346C63.1233 13.1103 62.9062 13.3423 62.7504 13.6307C62.598 13.9157 62.5201 14.2289 62.5168 14.5703V15.6292C62.5168 16.0734 62.598 16.4545 62.7604 16.7727C62.9228 17.0876 63.1498 17.3295 63.4415 17.4985C63.7332 17.6643 64.0745 17.7471 64.4656 17.7471C64.7275 17.7471 64.9644 17.7107 65.1766 17.6378C65.3887 17.5615 65.5726 17.4505 65.7284 17.3047C65.8842 17.1588 66.0019 16.9782 66.0814 16.7628L67.7618 16.9517C67.6557 17.3958 67.4536 17.7836 67.1553 18.115C66.8603 18.4432 66.4824 18.6984 66.0217 18.8807C65.561 19.0596 65.0341 19.1491 64.4408 19.1491ZM69.3589 19V11.3636H71.1039V12.6363H71.1835C71.3227 12.1955 71.5613 11.8558 71.8994 11.6172C72.2408 11.3752 72.6302 11.2542 73.0677 11.2542C73.1672 11.2542 73.2782 11.2592 73.4008 11.2691C73.5268 11.2758 73.6312 11.2874 73.714 11.3039V12.9595C73.6378 12.933 73.5168 12.9098 73.3511 12.8899C73.1887 12.8667 73.0313 12.8551 72.8788 12.8551C72.5507 12.8551 72.2557 12.9263 71.9939 13.0689C71.7353 13.2081 71.5315 13.402 71.3824 13.6505C71.2332 13.8991 71.1586 14.1858 71.1586 14.5106V19H69.3589ZM77.4291 19.1342C76.8291 19.1342 76.2922 18.9801 75.8183 18.6718C75.3443 18.3636 74.9698 17.9162 74.6947 17.3295C74.4196 16.7429 74.282 16.0303 74.282 15.1917C74.282 14.3432 74.4212 13.6273 74.6997 13.044C74.9814 12.4574 75.3609 12.0149 75.8381 11.7166C76.3154 11.415 76.8474 11.2642 77.434 11.2642C77.8815 11.2642 78.2494 11.3404 78.5377 11.4929C78.8261 11.642 79.0548 11.8226 79.2238 12.0348C79.3928 12.2436 79.5238 12.4408 79.6166 12.6264H79.6911V11.3636H81.4958V19H79.7259V17.7968H79.6166C79.5238 17.9825 79.3895 18.1797 79.2139 18.3885C79.0382 18.594 78.8062 18.7696 78.5178 18.9155C78.2295 19.0613 77.8666 19.1342 77.4291 19.1342ZM77.9312 17.6576C78.3123 17.6576 78.6372 17.5549 78.9056 17.3494C79.1741 17.1406 79.3779 16.8506 79.5171 16.4794C79.6563 16.1082 79.7259 15.6756 79.7259 15.1818C79.7259 14.6879 79.6563 14.2587 79.5171 13.8941C79.3812 13.5296 79.1791 13.2462 78.9106 13.044C78.6454 12.8418 78.319 12.7407 77.9312 12.7407C77.5301 12.7407 77.1954 12.8451 76.9269 13.0539C76.6585 13.2628 76.4563 13.5511 76.3204 13.919C76.1845 14.2869 76.1166 14.7078 76.1166 15.1818C76.1166 15.6591 76.1845 16.085 76.3204 16.4595C76.4596 16.8307 76.6634 17.124 76.9319 17.3395C77.2037 17.5516 77.5368 17.6576 77.9312 17.6576ZM83.4136 19V11.3636H85.2133V19H83.4136ZM84.3184 10.2798C84.0334 10.2798 83.7881 10.1853 83.5826 9.99642C83.3771 9.80418 83.2744 9.57383 83.2744 9.30537C83.2744 9.03359 83.3771 8.80324 83.5826 8.61432C83.7881 8.42208 84.0334 8.32596 84.3184 8.32596C84.6068 8.32596 84.8521 8.42208 85.0542 8.61432C85.2597 8.80324 85.3625 9.03359 85.3625 9.30537C85.3625 9.57383 85.2597 9.80418 85.0542 9.99642C84.8521 10.1853 84.6068 10.2798 84.3184 10.2798Z" fill="#3F4E72"/>
</svg>
